Coordinates

Units are S.I. units (second, meters, Newtons, ...)
If the header above contains a line with 'inDegrees', this indicates whether rotational values are in degrees (yes) or radians (no).

inDegrees=no
nColumns=21
nRows=14
DataType=double
version=3
OpenSimVersion=4.6-2026-03-31-d6972f9e6
endheader
time	/jointset/ground_pelvis/pelvis_tilt/value	/jointset/ground_pelvis/pelvis_list/value	/jointset/ground_pelvis/pelvis_rotation/value	/jointset/ground_pelvis/pelvis_tx/value	/jointset/ground_pelvis/pelvis_ty/value	/jointset/ground_pelvis/pelvis_tz/value	/jointset/hip_r/hip_flexion_r/value	/jointset/hip_r/hip_adduction_r/value	/jointset/hip_r/hip_rotation_r/value	/jointset/walker_knee_r/knee_angle_r/value	/jointset/patellofemoral_r/knee_angle_r_beta/value	/jointset/ankle_r/ankle_angle_r/value	/jointset/subtalar_r/subtalar_angle_r/value	/jointset/hip_l/hip_flexion_l/value	/jointset/hip_l/hip_adduction_l/value	/jointset/hip_l/hip_rotation_l/value	/jointset/walker_knee_l/knee_angle_l/value	/jointset/patellofemoral_l/knee_angle_l_beta/value	/jointset/ankle_l/ankle_angle_l/value	/jointset/subtalar_l/subtalar_angle_l/value
147.496	-0.2166044130922964	0.01435197312406237	-0.06599919396293032	1.126331486388179	0.9380955439992201	-0.3277982508027408	0.6161319944229452	-0.0319452609624541	0.04633301858617331	1.226693002202065	1.226693002307033	-0.06562548962913153	-0.5303680827965672	0.08091529357946912	0.04289118108458038	-0.004784366867731371	0.4719198741667908	0.4719198753130902	0.166860941259389	-0.2106309263327342
147.5	-0.2226875138922302	0.006620356516860586	-0.07091166710740682	1.126873794181501	0.9407135517087981	-0.3278165700625543	0.6270274522042082	-0.02074202707586473	0.04157302000457248	1.191757148777397	1.191757148891763	-0.06214401717090846	-0.5252486382315739	0.06695682017258855	0.03460611189869609	-0.006996072723095063	0.4540246391419572	0.4540246404248169	0.1353885868244718	-0.2113734813813308
147.504	-0.2290268162170483	-0.0009376732719342726	-0.07574232471034795	1.127442277095088	0.9432552531233832	-0.3278248534190298	0.6371993541562858	-0.009714192970113836	0.03667946131400278	1.155208815634964	1.155208815765871	-0.05926932962937911	-0.5199215426410215	0.05383661109102669	0.02641467613197218	-0.009587978279610032	0.4368641471909903	0.4368641485840717	0.103382076191989	-0.2116359925070409
147.508	-0.2355438354909683	-0.008258207312961089	-0.08049190355824008	1.128035260022384	0.9457134186919417	-0.3278216661944099	0.6465802917565292	0.001081250584788606	0.03171016697504798	1.117085257978761	1.117085258134275	-0.05691386294314902	-0.5142046270905477	0.04148575628922482	0.01838271854299433	-0.01255573072645759	0.4204782083237856	0.420478209795155	0.07109430884256086	-0.2113863180047161
147.512	-0.2421554709625142	-0.01527557908234044	-0.08515897675307631	1.128651110452708	0.9480810367283621	-0.3278059298030174	0.6551031061483401	0.01158536670263358	0.02671367828312974	1.077435657457788	1.077435657645635	-0.05497533225528364	-0.5078943400137154	0.02982677809592576	0.01058538371388339	-0.01587390462679695	0.4049046393024685	0.4049046408160132	0.03878723531845965	-0.2106117117464936
147.516	-0.2487755563767832	-0.02192327667388509	-0.08974036809797817	1.129288199441687	0.9503512342424314	-0.32777687294934	0.6627035111690923	0.02173810015652587	0.02172791260567405	1.036323925517677	1.036323925743984	-0.05334002611388678	-0.5007706708040611	0.01877628109646612	0.00310570034287542	-0.01949597272057627	0.3901811673614161	0.3901811688788263	0.006728262226835358	-0.2093187966382596
147.52	-0.2553161914742083	-0.02813519027304484	-0.09423177561382723	1.129944873644511	0.9525172522367817	-0.3277339697260258	0.6693223761552325	0.03147952453490643	0.01677908420412306	0.9938312840063973	0.9938312842747707	-0.05188665333953813	-0.4926030706009749	0.008247249917936149	-0.003967366576386657	-0.02335517200658911	0.3763469365121134	0.3763469379953778	-0.02481389932631675	-0.2075331616632826
147.524	-0.2616889352594987	-0.0338471116038733	-0.0986285439468315	1.130619432942565	0.9545724665544848	-0.327676869088425	0.674907735849227	0.04075140293949481	0.01188098195328289	0.9500585731901529	0.9500585735009668	-0.05049056434839156	-0.4831571958374067	-0.001848903445602783	-0.01054128964837774	-0.02736631075638838	0.3634436280368475	0.3634436294509676	-0.05557377022124389	-0.2052984431365421
147.528	-0.2678059585668695	-0.03899838155252026	-0.1029265025639492	1.131310106341309	0.9565104411856419	-0.3276053203659395	0.6794166147076608	0.04949892698249308	0.007034694300065151	0.905128235184172	0.905128235533711	-0.0490281503040963	-0.4722022922475822	-0.01160038234439868	-0.01652266346833756	-0.0314285608024828	0.3515163006211662	0.3515163019365271	-0.08529379644416128	-0.202674667169808
147.532	-0.2735811685518774	-0.04353364217249733	-0.107122797435465	1.132015023964059	0.9583250094657225	-0.327519100357061	0.6828166207158698	0.05767255472933646	0.002228841144006951	0.8591858570966583	0.859185857475965	-0.04738124864639915	-0.4595190630362087	-0.02109311300102102	-0.02182012727252065	-0.03542920773546265	0.3406139871152816	0.3406139883091469	-0.1137290631566381	-0.199735838092985
147.536	-0.2789313262957863	-0.04740464165188699	-0.1112166536268586	1.132732186371064	0.9600103770669123	-0.3274179480575142	0.6850872674803899	0.06522986076482816	-0.002559652745740797	0.8124011462274968	0.8124011466212606	-0.04544138516377022	-0.4449078582061056	-0.03040891433833975	-0.02634743944585866	-0.039248259320583	0.3307900305874247	0.3307900316443714	-0.1406519068534677	-0.1965668687486206
147.54	-0.283777220665673	-0.05057200378616755	-0.1152100087502766	1.133459433824215	0.9615612345861211	-0.3273015127080291	0.686221045185502	0.07213727857234804	-0.007364224583957257	0.764968234463719	0.7649682348498079	-0.04311367693824514	-0.4281969993302362	-0.03962368934567016	-0.03002658457925956	-0.0427637555025184	0.322102135157755	0.322102136069209	-0.1658562726257715	-0.1932599673909987
147.544	-0.2880449417593173	-0.05300688268715081	-0.1191079658261226	1.134194419304769	0.9629728681814165	-0.3271693197945931	0.6862242467059296	0.07837163345364435	-0.01222677667859388	0.7171052218661972	0.717105222216282	-0.04032024977727544	-0.409251018903485	-0.04880562653379306	-0.03279080328774833	-0.04585756182520635	0.3146121029221743	0.3146121036853172	-0.1891616843236963	-0.1899106556317647
147.548	-0.2916672336707151	-0.05469245400556132	-0.1229190259141173	1.134934589627218	0.9642412620311676	-0.3270207588743007	0.6851174921533396	0.083921400870434	-0.01719523629158946	0.6690528773887254	0.6690528776700466	-0.03700307086704493	-0.3879785496401125	-0.05801347448392906	-0.03458746012058814	-0.04842136722941756	0.308385227636188	0.3083852282524782	-0.2104167404396168	-0.186613666321498
